<svg xmlns="http://www.w3.org/2000/svg" width="192" height="192" fill="none" viewBox="0 0 192 192">
  <rect width="192" height="192" rx="32" fill="#6366f1"/>
  <path fill="#fff" d="M103.946 156.938c-.664.845-2.021.375-2.021-.698V119.937a2.26 2.26 0 0 0-2.262-2.262H78.287c-.92 0-1.456-1.04-.92-1.788l7.48-10.471c1.07-1.497 0-3.578-1.842-3.578H69.237c-.92 0-1.456-1.04-.92-1.788l7.696-10.568c.214-.297.556-.474.92-.474h28.894c.92 0 1.456 1.04.92 1.788l-7.48 10.471c-1.07 1.498 0 3.579 1.842 3.579h11.377c.943 0 1.473 1.088.89 1.83L103.947 156.94z"/>
</svg>
